# xmcd CD database file
#
# Track frame offsets:
#	150
#	19343
#	41754
#	58023
#	78395
#	93319
#	109577
#	124215
#	138047
#	151610
#	169040
#	184453
#	199573
#	220827
#	231482
#	251272
#	273218
#
# Disc length: 3856 seconds
#
# Revision: 0
# Processed by: cddbd v1.5.2PL0 Copyright (c) Steve Scherf et al.
# Submitted via: CDex 1.51
#
DISCID=e20f0e11
DTITLE=Marty Paich - Revel Without A Pause and Marty Paich Trio
DYEAR=1900
DGENRE=Jazz
TTITLE0=Blue Lou
TTITLE1=Soft Winds
TTITLE2=Dinah
TTITLE3=ris Of The IRA
TTITLE4=Jumpin' At The Woodside
TTITLE5=Look Around
TTITLE6=Ida
TTITLE7=Yardbird Suite
TTITLE8=Logrolling
TTITLE9=I Hadn't Anyone 'Till You
TTITLE10=The Facts About Max
TTITLE11=Dusk Light
TTITLE12=The New Soft Shoe
TTITLE13=A Dandy Line
TTITLE14=El Dorado Blues
TTITLE15=What's New
TTITLE16=By The River St Marie
EXTD=
EXTT0=
EXTT1=
EXTT2=
EXTT3=
EXTT4=
EXTT5=
EXTT6=
EXTT7=
EXTT8=
EXTT9=
EXTT10=
EXTT11=
EXTT12=
EXTT13=
EXTT14=
EXTT15=
EXTT16=
PLAYORDER=
